ngel Heart 1987 BluRay 1080p DTS x264 dxva-FraMeSToR

[img]http://torrent-stats.info/11ad/1535b5c3.png[/img]
 
http://www.imdb.com/title/tt0092563/

Genres:Horror, Mystery, Thriller 

Ratted R

Release Date:6 March 1987 (USA)

Cast
Cast overview, first billed only: 
  Mickey Rourke  ...  Harry Angel  
  Robert De Niro  ...  Louis Cyphre  
  Lisa Bonet  ...  Epiphany Proudfoot  
  Charlotte Rampling  ...  Margaret Krusemark  
  Stocker Fontelieu  ...  Ethan Krusemark  
  Brownie McGhee  ...  Toots Sweet  
  Michael Higgins  ...  Dr. Albert Fowler  
  Elizabeth Whitcraft  ...  Connie  
  Eliott Keener  ...  Det. Sterne  
  Charles Gordone  ...  Spider Simpson  
  Dann Florek  ...  Herman Winesap  
  Kathleen Wilhoite  ...  Nurse  
  George Buck  ...  Izzy  
  Judith Drake  ...  Izzy's Wife  
  Gerald Orange  ...  Pastor John (as Gerald L. Orange) 

Storyline
Harry Angel has a new case, to find a man called Johnny Favourite. Except things aren't quite that simple, and Johnny doesn't want to be found. Let's just say that, amongst the period detail and beautiful scenery, it all gets really, really nasty. Written by David Carroll <davidc@atom.ansto.gov.au>  



Format                           : Matroska
File size                        : 12.7 GiB
Duration                         : 1h 53mn
Overall bit rate                 : 16.1 Mbps
Encoded date                     : UTC 2009-12-05 11:57:53
Writing application              : mkvmerge v2.4.1 ('Use Me') built on Dec  5 2008 15:43:32
Writing library                  : libebml v0.7.7 + libmatroska v0.8.1

Video
ID                               : 1
Format                           : AVC
Format/Info                      : Advanced Video Codec
Format profile                   : High@L4.1
Format settings, CABAC           : Yes
Format settings, ReFrames        : 4 frames
Muxing mode                      : Container profile=Unknown@4.1
Codec ID                         : V_MPEG4/ISO/AVC
Duration                         : 1h 53mn
Bit rate                         : 15.0 Mbps
Nominal bit rate                 : 15.3 Mbps
Width                            : 1 920 pixels
Height                           : 1 036 pixels
Display aspect ratio             : 1.853
Frame rate                       : 23.976 fps
Resolution                       : 24 bits
Colorimetry                      : 4:2:0
Scan type                        : Progressive
Bits/(Pixel*Frame)               : 0.314
Stream size                      : 11.8 GiB (93%)
Title                            : FraMeSToR's x264 crf encode
Writing library                  : x264 core 76 r1271 496d79d
Encoding settings                : cabac=1 / ref=4 / deblock=1:-2:-2 / analyse=0x3:0x113 / me=umh / subme=9 / psy=1 / psy_rd=1.0:0.0 / mixed_ref=1 / me_range=64 / chroma_me=1 / trellis=2 / 8x8dct=1 / cqm=0 / deadzone=21,11 / chroma_qp_offset=-2 / threads=12 / nr=0 / decimate=1 / mbaff=0 / bframes=6 / b_pyramid=1 / b_adapt=2 / b_bias=0 / direct=2 / wpredb=1 / keyint=250 / keyint_min=25 / scenecut=40 / rc_lookahead=0 / rc=2pass / mbtree=0 / bitrate=15299 / ratetol=2.0 / qcomp=0.70 / qpmin=10 / qpmax=51 / qpstep=4 / cplxblur=20.0 / qblur=0.5 / vbv_maxrate=50000 / vbv_bufsize=50000 / ip_ratio=1.40 / pb_ratio=1.30 / aq=1:0.80
Language                         : English

Audio
ID                               : 2
Format                           : DTS
Format/Info                      : Digital Theater Systems
Codec ID                         : A_DTS
Duration                         : 1h 53mn
Bit rate mode                    : Constant
Bit rate                         : 755 Kbps
Channel(s)                       : 6 channels
Channel positions                : Front: L C R, Surround: L R, LFE
Sampling rate                    : 48.0 KHz
Resolution                       : 24 bits
Stream size                      : 611 MiB (5%)
Language                         : English

Text 
ID                               : 3
Format                           : UTF-8
Codec ID                         : S_TEXT/UTF8
Codec ID/Info                    : UTF-8 Plain Text
Title                            : FraMeSToR's Englisch SRT
Language                         : English, Dutch


Menu & 12 Chapters
 
http://www.imagebam.com/image/affc8b120829413
 
http://www.imagebam.com/image/0f3e3e120829443
 
http://www.imagebam.com/image/67dd0c120829470
 
http://www.imagebam.com/image/3111fe120829523
 
http://www.imagebam.com/image/0263c0120829559
 
http://www.imagebam.com/image/7d9d39120829630